<svg width="16" height="16" viewBox="0 0 16 16" fill="none" xmlns="http://www.w3.org/2000/svg">
<path d="M5 5H4.5C4.10218 5 3.72064 5.15804 3.43934 5.43934C3.15804 5.72064 3 6.10218 3 6.5V11.5C3 11.8978 3.15804 12.2794 3.43934 12.5607C3.72064 12.842 4.10218 13 4.5 13H9.5C9.89782 13 10.2794 12.842 10.5607 12.5607C10.842 12.2794 11 11.8978 11 11.5V6.5C11 6.10218 10.842 5.72064 10.5607 5.43934C10.2794 5.15804 9.89782 5 9.5 5H9M5 7.5L7 9.5M7 9.5L9 7.5M7 9.5V1M11 7H11.5C11.8978 7 12.2794 7.15804 12.5607 7.43934C12.842 7.72064 13 8.10218 13 8.5V13.5C13 13.8978 12.842 14.2794 12.5607 14.5607C12.2794 14.842 11.8978 15 11.5 15H6.5C6.10218 15 5.72064 14.842 5.43934 14.5607C5.15804 14.2794 5 13.8978 5 13.5V13" stroke="#135C9D" stroke-linecap="round" stroke-linejoin="round"/>
</svg>
