<svg width="20" height="20" viewBox="0 0 20 20" fill="none" xmlns="http://www.w3.org/2000/svg">
<path d="M15.3125 10.616L8.90169 17.0269C8.19842 17.7301 7.24459 18.1252 6.25002 18.1252C5.25546 18.1252 4.30162 17.7301 3.59836 17.0269C2.89509 16.3236 2.5 15.3698 2.5 14.3752C2.5 13.3806 2.89509 12.4268 3.59836 11.7235L12.715 2.60688C12.9472 2.37477 13.2229 2.19067 13.5263 2.06509C13.8296 1.93952 14.1548 1.87492 14.4831 1.875C14.8114 1.87508 15.1365 1.93982 15.4399 2.06554C15.7432 2.19126 16.0187 2.37549 16.2509 2.60771C16.483 2.83993 16.6671 3.1156 16.7926 3.41897C16.9182 3.72234 16.9828 4.04747 16.9827 4.3758C16.9827 4.70413 16.9179 5.02924 16.7922 5.33255C16.6665 5.63586 16.4822 5.91143 16.25 6.14355L7.12669 15.2669C6.89001 15.4938 6.57366 15.6178 6.24581 15.6136C5.91797 15.6095 5.60488 15.4767 5.37402 15.2438C5.14317 15.011 5.01303 14.6968 5.01166 14.3689C5.01029 14.0411 5.13779 13.7258 5.36669 13.491L11.875 6.98271M7.13419 15.2585L7.12586 15.2669" stroke="#7F7F7F" stroke-width="1.5" stroke-linecap="round" stroke-linejoin="round"/>
</svg>
