<svg width="25" height="25" viewBox="0 0 28 28" fill="none" xmlns="http://www.w3.org/2000/svg">
<path d="M19 14.9375H9C8.4875 14.9375 8.0625 14.5125 8.0625 14C8.0625 13.4875 8.4875 13.0625 9 13.0625H19C19.5125 13.0625 19.9375 13.4875 19.9375 14C19.9375 14.5125 19.5125 14.9375 19 14.9375Z" fill="#B1B1B1"/>
<path d="M14 19.9375C13.4875 19.9375 13.0625 19.5125 13.0625 19V9C13.0625 8.4875 13.4875 8.0625 14 8.0625C14.5125 8.0625 14.9375 8.4875 14.9375 9V19C14.9375 19.5125 14.5125 19.9375 14 19.9375Z" fill="#B1B1B1"/>
<path d="M17.75 27.4375H10.25C3.4625 27.4375 0.5625 24.5375 0.5625 17.75V10.25C0.5625 3.4625 3.4625 0.5625 10.25 0.5625H17.75C24.5375 0.5625 27.4375 3.4625 27.4375 10.25V17.75C27.4375 24.5375 24.5375 27.4375 17.75 27.4375ZM10.25 2.4375C4.4875 2.4375 2.4375 4.4875 2.4375 10.25V17.75C2.4375 23.5125 4.4875 25.5625 10.25 25.5625H17.75C23.5125 25.5625 25.5625 23.5125 25.5625 17.75V10.25C25.5625 4.4875 23.5125 2.4375 17.75 2.4375H10.25Z" fill="#B1B1B1"/>
</svg>
