<svg width="36" height="36" viewBox="0 0 36 36" fill="none" xmlns="http://www.w3.org/2000/svg">
<path d="M18 25.0961C18.3432 25.0961 18.631 24.98 18.8632 24.7477C19.0955 24.5155 19.2116 24.2277 19.2116 23.8845C19.2116 23.5412 19.0955 23.2535 18.8632 23.0212C18.631 22.7892 18.3432 22.6732 18 22.6732C17.6567 22.6732 17.369 22.7892 17.1367 23.0212C16.9045 23.2535 16.7884 23.5412 16.7884 23.8845C16.7884 24.2277 16.9045 24.5155 17.1367 24.7477C17.369 24.98 17.6567 25.0961 18 25.0961ZM18.0004 19.6155C18.3194 19.6155 18.5865 19.5076 18.8017 19.2919C19.0172 19.0764 19.125 18.8092 19.125 18.4905V11.7405C19.125 11.4217 19.0171 11.1545 18.8014 10.9387C18.5856 10.7232 18.3184 10.6155 17.9996 10.6155C17.6806 10.6155 17.4135 10.7232 17.1982 10.9387C16.9827 11.1545 16.875 11.4217 16.875 11.7405V18.4905C16.875 18.8092 16.9829 19.0764 17.1986 19.2919C17.4144 19.5076 17.6816 19.6155 18.0004 19.6155ZM18.0026 32.25C16.0316 32.25 14.179 31.876 12.4447 31.128C10.7105 30.38 9.202 29.3649 7.91925 28.0826C6.6365 26.8004 5.62087 25.2925 4.87237 23.559C4.12412 21.8255 3.75 19.9734 3.75 18.0026C3.75 16.0316 4.124 14.179 4.872 12.4447C5.62 10.7105 6.63512 9.202 7.91737 7.91925C9.19962 6.6365 10.7075 5.62087 12.441 4.87237C14.1745 4.12412 16.0266 3.75 17.9974 3.75C19.9684 3.75 21.821 4.124 23.5552 4.872C25.2895 5.62 26.798 6.63512 28.0807 7.91737C29.3635 9.19962 30.3791 10.7075 31.1276 12.441C31.8759 14.1745 32.25 16.0266 32.25 17.9974C32.25 19.9684 31.876 21.821 31.128 23.5552C30.38 25.2895 29.3649 26.798 28.0826 28.0807C26.8004 29.3635 25.2925 30.3791 23.559 31.1276C21.8255 31.8759 19.9734 32.25 18.0026 32.25ZM18 30C21.35 30 24.1875 28.8375 26.5125 26.5125C28.8375 24.1875 30 21.35 30 18C30 14.65 28.8375 11.8125 26.5125 9.4875C24.1875 7.1625 21.35 6 18 6C14.65 6 11.8125 7.1625 9.4875 9.4875C7.1625 11.8125 6 14.65 6 18C6 21.35 7.1625 24.1875 9.4875 26.5125C11.8125 28.8375 14.65 30 18 30Z" fill="#E74C3C"/>
</svg>
