<svg width="44" height="55" viewBox="0 0 44 55" fill="none" xmlns="http://www.w3.org/2000/svg">
<path fillRule="evenodd" clipRule="evenodd" d="M26.0985 3H3V52H41V18.3018L26.0985 3Z" fill="#F1F1F1"/>
<path d="M1.87795 54.469H37.007C40.602 54.469 43.525 51.545 43.525 47.949V16.199C43.525 16.161 43.506 16.129 43.504 16.091C43.494 15.937 43.465 15.789 43.414 15.644C43.394 15.587 43.377 15.53 43.351 15.477C43.28 15.326 43.186 15.187 43.07 15.06C43.049 15.038 43.038 15.01 43.016 14.99C43.01 14.985 43.008 14.978 43.003 14.973L27.988 0.573006C27.847 0.439006 27.686 0.341005 27.515 0.262005C27.466 0.240005 27.415 0.229006 27.364 0.212006C27.218 0.161006 27.071 0.131006 26.918 0.121006C26.881 0.119006 26.85 0.100006 26.812 0.100006H1.87795C0.939954 0.100006 0.178955 0.861005 0.178955 1.8V52.77C0.178955 53.708 0.938954 54.469 1.87795 54.469ZM28.511 5.78501L37.597 14.499H31.63C29.91 14.499 28.511 13.1 28.511 11.379V5.78501ZM3.57795 3.49901H25.11V11.38C25.11 14.975 28.034 17.9 31.63 17.9H40.125V47.95C40.125 49.671 38.726 51.07 37.007 51.07H3.57795V3.49901Z" fill="black"/>
</svg>
