<svg width="165" height="165" viewBox="0 0 165 165" fill="none" xmlns="http://www.w3.org/2000/svg">
<path d="M116.582 25.6927L113.85 24.3005C111.89 23.3208 110.137 22.0317 108.59 20.4848L103.228 15.1223C99.2059 11.1005 94.8231 8.83171 87.8621 11.6161C84.3559 12.8536 80.5918 12.8536 77.0856 11.6161C72.3418 9.24421 66.67 10.1723 62.9059 13.8848L56.3575 20.5364C54.8106 22.0833 53.0059 23.3723 51.0465 24.3005L48.3137 25.6927C43.2606 28.2192 40.4762 33.788 41.4559 39.3567L45.1168 59.4145C45.4778 61.4255 49.2418 68.077 49.2418 68.077L115.706 68.1286C115.706 68.1286 119.367 61.4255 119.728 59.4661L123.389 39.4083C124.472 33.788 121.687 28.2192 116.582 25.6927Z" fill="#F1A11E"/>
<path d="M116.135 56.4598C115.919 59.6566 115.706 62.9723 115.706 62.9723C117.665 62.8692 119.367 61.4254 119.728 59.466L119.951 58.2414C122.568 60.176 124.265 63.2838 124.265 66.7879C124.265 72.6542 119.509 77.4098 113.643 77.4098C107.777 77.4098 103.021 72.6542 103.021 66.7879C103.021 60.9216 107.777 56.166 113.643 56.166C114.501 56.166 115.335 56.2678 116.135 56.4598Z" fill="#FDBB11"/>
<path d="M44.9203 58.3368L45.117 59.4145C45.4779 61.4254 47.1795 62.8692 49.242 62.9207C49.242 62.9207 49.0064 59.652 48.8023 56.4749C49.6202 56.2731 50.4755 56.166 51.3558 56.166C57.2221 56.166 61.9776 60.9216 61.9776 66.7879C61.9776 72.6542 57.2221 77.4098 51.3558 77.4098C45.4895 77.4098 40.7339 72.6542 40.7339 66.7879C40.7339 63.3409 42.3758 60.2774 44.9203 58.3368Z" fill="#FDBB11"/>
<path d="M49.236 62.9209L49.2422 62.9211C49.2422 62.9211 48.8297 57.1977 48.6235 53.5367C48.5203 51.732 49.2422 49.8758 50.686 48.6383L51.8719 47.5555C53.5219 46.1117 54.45 43.9977 54.45 41.7805V36.1602C54.45 34.5617 55.5328 33.1695 57.0797 32.8086C61.2563 31.7773 70.125 29.9727 82.4485 29.9727C94.7719 29.9727 103.692 31.7258 107.817 32.8086C109.364 33.2211 110.447 34.6133 110.447 36.1602V41.7805C110.447 43.9977 111.375 46.0602 113.025 47.5555L114.314 48.6898C115.706 49.9273 116.48 51.7836 116.325 53.6914C116.067 57.3523 115.706 62.9727 115.706 62.9727C115.724 62.9717 115.742 62.9707 115.76 62.9695L113.953 88.857C112.818 100.252 103.898 108.348 92.9667 108.348H72.0323C61.1526 108.348 52.1808 100.252 51.0464 88.857L49.236 62.9209Z" fill="#FFC83D"/>
<path d="M82.4995 97.9688C86.7711 97.9688 90.2339 94.506 90.2339 90.2344C90.2339 85.9628 86.7711 82.5 82.4995 82.5C78.2279 82.5 74.7651 85.9628 74.7651 90.2344C74.7651 94.506 78.2279 97.9688 82.4995 97.9688Z" fill="#990839"/>
<path d="M80.0759 63.6926L76.7244 74.5723C76.0541 76.7894 77.7041 79.0582 80.0244 79.0582H85.0259C87.3462 79.0582 89.0478 76.7894 88.3259 74.5723L84.9744 63.6926C84.2009 61.2691 80.7978 61.2691 80.0759 63.6926Z" fill="#ED9200"/>
<path d="M98.0714 57.9707C102.3 57.9707 105.909 60.9098 106.889 64.8285C107.146 65.9629 106.321 67.0457 105.135 67.0457H90.6464C89.7183 67.0457 88.9964 66.2207 89.1511 65.2926C89.9761 61.116 93.6371 57.9707 98.0714 57.9707Z" fill="white"/>
<path d="M66.9275 57.9707C62.6994 57.9707 59.09 60.9098 58.1103 64.8285C57.8525 65.9629 58.6775 67.0457 59.8634 67.0457H74.3525C75.2806 67.0457 76.0025 66.2207 75.8478 65.2926C75.0228 61.116 71.3619 57.9707 66.9275 57.9707Z" fill="white"/>
<path d="M96.7307 59.7246C99.9276 59.7246 102.557 62.3027 102.557 65.5512C102.557 66.0668 102.454 66.5824 102.351 67.098H91.162C91.0073 66.5824 90.9557 66.0668 90.9557 65.5512C90.9042 62.3027 93.4823 59.7246 96.7307 59.7246Z" fill="#7D4533"/>
<path d="M68.268 59.7246C65.0711 59.7246 62.4414 62.3027 62.4414 65.5512C62.4414 66.0668 62.5445 66.5824 62.6477 67.098H73.8367C73.9914 66.5824 74.043 66.0668 74.043 65.5512C74.0945 62.3027 71.5164 59.7246 68.268 59.7246Z" fill="#7D4533"/>
<path d="M93.3795 65.4992C93.3795 63.643 94.8748 62.1992 96.6795 62.1992C98.5358 62.1992 99.9795 63.6945 99.9795 65.4992C99.9795 66.0664 99.8248 66.582 99.6186 67.0461H93.7405C93.5342 66.582 93.3795 66.0664 93.3795 65.4992Z" fill="black"/>
<path d="M71.6195 65.4992C71.6195 63.643 70.1242 62.1992 68.3195 62.1992C66.4633 62.1992 65.0195 63.6945 65.0195 65.4992C65.0195 66.0664 65.1742 66.582 65.3805 67.0461H71.2586C71.4648 66.582 71.6195 66.0664 71.6195 65.4992Z" fill="black"/>
<path d="M94.9265 64.2617C95.4961 64.2617 95.9578 63.8 95.9578 63.2305C95.9578 62.6609 95.4961 62.1992 94.9265 62.1992C94.357 62.1992 93.8953 62.6609 93.8953 63.2305C93.8953 63.8 94.357 64.2617 94.9265 64.2617Z" fill="white"/>
<path d="M66.3091 64.2617C66.8786 64.2617 67.3403 63.8 67.3403 63.2305C67.3403 62.6609 66.8786 62.1992 66.3091 62.1992C65.7395 62.1992 65.2778 62.6609 65.2778 63.2305C65.2778 63.8 65.7395 64.2617 66.3091 64.2617Z" fill="white"/>
<path d="M74.5712 48.5559C75.0154 50.4992 73.8001 52.4346 71.8569 52.8788C69.1691 53.4932 66.4772 54.134 64.4548 54.622C63.4443 54.8658 62.6024 55.0711 62.0136 55.2153L61.331 55.3829L61.0955 55.441C59.1605 55.9201 57.2001 54.7408 56.7209 52.8058C56.2418 50.8709 57.422 48.9139 59.3569 48.4347L59.6043 48.3737L60.2965 48.2037C60.892 48.0579 61.742 47.8506 62.7617 47.6046C64.7998 47.1129 67.5221 46.4647 70.2483 45.8415C72.1916 45.3974 74.1271 46.6126 74.5712 48.5559Z" fill="#D37034"/>
<path d="M90.3879 48.7559C90.7216 46.7906 92.5853 45.468 94.5505 45.8017C96.0772 46.061 98.9256 46.7427 101.254 47.32C102.448 47.6161 103.555 47.8973 104.363 48.1043L105.326 48.3525L105.686 48.4459C107.615 48.9496 108.77 50.9216 108.267 52.8503C107.763 54.779 105.791 55.9342 103.862 55.4306L103.516 55.3406L102.571 55.0971C101.775 54.8932 100.687 54.6169 99.5165 54.3265C97.1138 53.7308 94.5482 53.1234 93.342 52.9186C91.3768 52.5849 90.0541 50.7212 90.3879 48.7559Z" fill="#D37034"/>
<path d="M131.484 154.754H33.5156C29.2359 154.754 25.7812 151.299 25.7812 147.02V124.693C25.7812 112.834 35.4234 103.191 47.2828 103.191H117.717C129.577 103.191 139.219 112.834 139.219 124.693V147.02C139.219 151.299 135.764 154.754 131.484 154.754Z" fill="#007ACF"/>
<path d="M35.1143 106.063L46.87 111.529L57.7497 88.2227L46.2515 82.8086L35.1143 106.063Z" fill="#00A6ED"/>
<path d="M59.6053 83.0073L139.048 120.016C148.129 124.278 152.072 135.09 147.817 144.186C143.562 153.282 132.769 157.233 123.689 152.971L44.246 115.91C41.6515 114.714 40.51 111.596 41.7553 108.997L52.704 85.4503C53.8974 82.9033 57.0108 81.7598 59.6053 83.0073Z" fill="#0092E7"/>
<path d="M129.886 106.065L118.129 111.53L107.25 88.2242L118.903 82.707L129.886 106.065Z" fill="#3BC6F6"/>
<path d="M105.395 83.0076L25.9521 119.991C16.8714 124.256 12.9278 135.076 17.1827 144.179C21.4377 153.281 32.2307 157.235 41.3113 152.969L120.754 115.934C123.348 114.737 124.49 111.616 123.245 109.016L112.296 85.4524C111.103 82.9036 107.989 81.7593 105.395 83.0076Z" fill="#00A6ED"/>
<path d="M133.186 104.311L149.016 95.0815C150.356 94.308 151.181 92.8643 151.181 91.2658C151.181 88.3783 148.448 86.2643 145.664 86.9861L134.32 89.9252L133.186 104.311Z" fill="#F59F00"/>
<path d="M31.8145 104.311L15.9848 95.0299C14.5926 94.2565 13.7676 92.8127 13.7676 91.2658C13.7676 88.3783 16.5004 86.2643 19.2848 86.9861L30.6285 89.9252L31.8145 104.311Z" fill="#F59F00"/>
<path d="M118.594 82.861L147.572 67.0829C150.769 65.3298 154.688 67.6501 154.688 71.311C154.688 72.7032 154.069 74.0438 152.986 74.972L145.2 81.6751C143.653 83.222 142.57 85.1813 142.158 87.347L140.663 94.5142C139.786 98.7423 137.053 102.3 133.238 104.311L129.525 106.27L118.594 82.861Z" fill="#FFC83D"/>
<path d="M46.4062 82.861L17.4281 67.0829C14.2313 65.3298 10.3125 67.6501 10.3125 71.311C10.3125 72.7032 10.9313 74.0438 12.0141 74.972L19.8 81.6751C21.3469 83.222 22.4297 85.1813 22.8422 87.347L24.3375 94.5142C25.2141 98.7423 27.9469 102.3 31.7625 104.311L35.475 106.27L46.4062 82.861Z" fill="#FFC83D"/>
</svg>
