<svg width="40" height="40" viewBox="0 0 40 40" fill="none" xmlns="http://www.w3.org/2000/svg">
<path d="M3.75 26.25L12.3483 17.6517C12.6966 17.3034 13.11 17.0272 13.5649 16.8388C14.0199 16.6503 14.5075 16.5533 15 16.5533C15.4925 16.5533 15.9801 16.6503 16.4351 16.8388C16.89 17.0272 17.3034 17.3034 17.6517 17.6517L26.25 26.25M23.75 23.75L26.0983 21.4017C26.4466 21.0534 26.86 20.7772 27.3149 20.5888C27.7699 20.4003 28.2575 20.3033 28.75 20.3033C29.2425 20.3033 29.7301 20.4003 30.1851 20.5888C30.64 20.7772 31.0534 21.0534 31.4017 21.4017L36.25 26.25M6.25 32.5H33.75C34.413 32.5 35.0489 32.2366 35.5178 31.7678C35.9866 31.2989 36.25 30.663 36.25 30V10C36.25 9.33696 35.9866 8.70107 35.5178 8.23223C35.0489 7.76339 34.413 7.5 33.75 7.5H6.25C5.58696 7.5 4.95107 7.76339 4.48223 8.23223C4.01339 8.70107 3.75 9.33696 3.75 10V30C3.75 30.663 4.01339 31.2989 4.48223 31.7678C4.95107 32.2366 5.58696 32.5 6.25 32.5ZM23.75 13.75H23.7633V13.7633H23.75V13.75ZM24.375 13.75C24.375 13.9158 24.3092 14.0747 24.1919 14.1919C24.0747 14.3092 23.9158 14.375 23.75 14.375C23.5842 14.375 23.4253 14.3092 23.3081 14.1919C23.1908 14.0747 23.125 13.9158 23.125 13.75C23.125 13.5842 23.1908 13.4253 23.3081 13.3081C23.4253 13.1908 23.5842 13.125 23.75 13.125C23.9158 13.125 24.0747 13.1908 24.1919 13.3081C24.3092 13.4253 24.375 13.5842 24.375 13.75Z" stroke="#CCCCCC" stroke-width="2.5" stroke-linecap="round" stroke-linejoin="round"/>
</svg>
