<svg width="132" height="132" viewBox="0 0 132 132" fill="none" xmlns="http://www.w3.org/2000/svg">
<path d="M103.331 12.8081L99.1238 8.93062C98.1338 8.02312 96.6075 8.02312 95.6175 8.93062L91.41 12.8081C90.8325 13.3444 89.8837 13.3444 89.3062 12.8081L85.0988 8.93062C84.1088 8.02312 82.5825 8.02312 81.5925 8.93062L77.385 12.8081C76.8075 13.3444 75.8588 13.3444 75.2812 12.8081L71.0737 8.93062C70.0837 8.02312 68.5575 8.02312 67.5675 8.93062L63.3188 12.8081C62.7413 13.3444 61.7925 13.3444 61.215 12.8081L57.0075 8.93062C56.0175 8.02312 54.4912 8.02312 53.5012 8.93062L49.2937 12.8081C48.7162 13.3444 47.7675 13.3444 47.19 12.8081L42.9825 8.88938C42.3225 8.27062 41.25 8.76562 41.25 9.67312V15.5719V123.729H101.516C106.961 123.729 111.375 119.316 111.375 113.871V15.5306V9.67312C111.375 8.76562 110.302 8.31187 109.642 8.93062L105.394 12.8494C104.816 13.3444 103.909 13.3444 103.331 12.8081Z" fill="#D3D3D3"/>
<path d="M50.5312 33H102.094C102.671 33 103.125 32.5462 103.125 31.9688V25.7812C103.125 25.2037 102.671 24.75 102.094 24.75H50.5312C49.9538 24.75 49.5 25.2037 49.5 25.7812V31.9688C49.5 32.5462 49.9538 33 50.5312 33ZM51.5625 41.25C50.4234 41.25 49.5 42.1734 49.5 43.3125C49.5 44.4516 50.4234 45.375 51.5625 45.375H84.5625C85.7016 45.375 86.625 44.4516 86.625 43.3125C86.625 42.1734 85.7016 41.25 84.5625 41.25H51.5625ZM51.5625 53.625C50.4234 53.625 49.5 54.5484 49.5 55.6875C49.5 56.8266 50.4234 57.75 51.5625 57.75H84.5625C85.7016 57.75 86.625 56.8266 86.625 55.6875C86.625 54.5484 85.7016 53.625 84.5625 53.625H51.5625ZM49.5 68.0625C49.5 66.9234 50.4234 66 51.5625 66H84.5625C85.7016 66 86.625 66.9234 86.625 68.0625C86.625 69.2016 85.7016 70.125 84.5625 70.125H51.5625C50.4234 70.125 49.5 69.2016 49.5 68.0625ZM51.5625 78.375C50.4234 78.375 49.5 79.2984 49.5 80.4375C49.5 81.5766 50.4234 82.5 51.5625 82.5H84.5625C85.7016 82.5 86.625 81.5766 86.625 80.4375C86.625 79.2984 85.7016 78.375 84.5625 78.375H51.5625ZM49.5 92.8125C49.5 91.6734 50.4234 90.75 51.5625 90.75H84.5625C85.7016 90.75 86.625 91.6734 86.625 92.8125C86.625 93.9516 85.7016 94.875 84.5625 94.875H51.5625C50.4234 94.875 49.5 93.9516 49.5 92.8125ZM92.8125 41.25C91.6734 41.25 90.75 42.1734 90.75 43.3125C90.75 44.4516 91.6734 45.375 92.8125 45.375H101.062C102.202 45.375 103.125 44.4516 103.125 43.3125C103.125 42.1734 102.202 41.25 101.062 41.25H92.8125ZM90.75 55.6875C90.75 54.5484 91.6734 53.625 92.8125 53.625H101.062C102.202 53.625 103.125 54.5484 103.125 55.6875C103.125 56.8266 102.202 57.75 101.062 57.75H92.8125C91.6734 57.75 90.75 56.8266 90.75 55.6875ZM92.8125 66C91.6734 66 90.75 66.9234 90.75 68.0625C90.75 69.2016 91.6734 70.125 92.8125 70.125H101.062C102.202 70.125 103.125 69.2016 103.125 68.0625C103.125 66.9234 102.202 66 101.062 66H92.8125ZM90.75 80.4375C90.75 79.2984 91.6734 78.375 92.8125 78.375H101.062C102.202 78.375 103.125 79.2984 103.125 80.4375C103.125 81.5766 102.202 82.5 101.062 82.5H92.8125C91.6734 82.5 90.75 81.5766 90.75 80.4375ZM92.8125 90.75C91.6734 90.75 90.75 91.6734 90.75 92.8125C90.75 93.9516 91.6734 94.875 92.8125 94.875H101.062C102.202 94.875 103.125 93.9516 103.125 92.8125C103.125 91.6734 102.202 90.75 101.062 90.75H92.8125ZM90.75 113.417V106.982C90.75 104.837 89.0175 103.104 86.8725 103.104H28.6275C26.4825 103.104 24.75 104.837 24.75 106.982V113.417C24.75 119.109 29.37 123.729 35.0625 123.729H101.062C95.37 123.729 90.75 119.109 90.75 113.417Z" fill="#9B9B9B"/>
</svg>
