<svg width="132" height="132" viewBox="0 0 132 132" fill="none" xmlns="http://www.w3.org/2000/svg">
<path d="M97.4318 50.1386C97.4318 54.56 96.5458 58.2749 94.715 61.2514C104.267 69.7121 110.302 82.0771 110.302 95.8439C110.302 102.212 109.006 107.609 106.448 112.075C103.88 116.556 100.187 119.844 95.8071 122.208C87.2311 126.836 75.8212 128.019 64.1019 128.019C52.3826 128.019 40.9726 126.836 32.3966 122.208C28.0164 119.844 24.3235 116.556 21.756 112.075C19.1975 107.609 17.9019 102.212 17.9019 95.8439C17.9019 82.1099 23.9082 69.771 33.4204 61.312C31.5999 58.32 30.7305 54.5833 30.7305 50.1386C30.7305 31.6866 45.6574 16.8086 64.0605 16.8086C82.4599 16.8086 97.4318 31.7241 97.4318 50.1386Z" fill="#B4ACBC"/>
<path d="M26.8128 55.9961C26.8128 54.857 25.8893 53.9336 24.7503 53.9336C23.6112 53.9336 22.6878 54.857 22.6878 55.9961V62.6255L18.1874 58.6921C17.3298 57.9424 16.0268 58.03 15.2772 58.8877C14.5275 59.7453 14.6151 61.0483 15.4728 61.7979L25.1647 70.2689H20.4188C19.2797 70.2689 18.3563 71.1924 18.3563 72.3314C18.3563 73.4705 19.2797 74.3939 20.4188 74.3939H29.6588C29.7307 74.3939 29.8018 74.3903 29.8718 74.3831L36.7578 80.4017C37.6155 81.1513 38.9184 81.0637 39.668 80.2061C40.4177 79.3484 40.3301 78.0454 39.4724 77.2958L26.7989 66.2188C26.8081 66.14 26.8128 66.0598 26.8128 65.9786V55.9961ZM103.208 53.9336C104.347 53.9336 105.27 54.857 105.27 55.9961V62.6254L109.771 58.6921C110.628 57.9424 111.931 58.03 112.681 58.8877C113.43 59.7453 113.343 61.0483 112.485 61.7979L102.746 70.3102H107.333C108.472 70.3102 109.395 71.2336 109.395 72.3727C109.395 73.5118 108.472 74.4352 107.333 74.4352H98.0929L98.0277 74.4342L91.2002 80.4017C90.3426 81.1513 89.0396 81.0637 88.29 80.2061C87.5404 79.3484 87.6279 78.0454 88.4856 77.2958L101.159 66.2187C101.15 66.1399 101.145 66.0598 101.145 65.9786V55.9961C101.145 54.857 102.069 53.9336 103.208 53.9336Z" fill="#433B6B"/>
<path d="M88.8334 61.8094C91.6657 59.4652 93.3068 55.8168 93.3068 50.1386C93.3068 34.0098 80.1893 20.9336 64.0605 20.9336C47.9318 20.9336 34.8555 33.9686 34.8555 50.1386C34.8555 55.87 36.4724 59.5337 39.2801 61.8753C28.8225 69.5328 22.0269 81.9002 22.0269 95.8439C22.0269 119.068 40.8781 123.894 64.1019 123.894C87.3256 123.894 106.177 119.068 106.177 95.8439C106.177 81.8601 99.3421 69.4617 88.8334 61.8094Z" fill="white"/>
<path d="M84.7264 99.1436H80.5602V101.206C80.5602 102.278 79.6527 103.227 78.539 103.227C77.4252 103.227 76.5177 102.32 76.5177 101.206V99.1436H72.2689V101.165C72.2689 102.278 71.3614 103.186 70.2477 103.186C69.1339 103.186 68.2264 102.278 68.2264 101.165V97.273C68.1459 97.0174 68.1025 96.7451 68.1025 96.4623V74.3936H88.8513V96.4623C88.8513 96.6918 88.8227 96.9145 88.7689 97.1268V101.206C88.7689 102.278 87.8614 103.227 86.7477 103.227C85.6339 103.227 84.7264 102.32 84.7264 101.206V99.1436Z" fill="#0074BA"/>
<path d="M36.3637 58.0854C35.3069 59.2676 34.7324 61.3546 34.7324 64.742C34.7324 80.9532 47.8912 82.8507 64.1024 82.8507C80.3137 82.8507 93.4724 80.9532 93.4724 64.742C93.4724 61.2927 92.8767 59.1918 91.7827 58.0215C87.933 66.0257 77.2226 66.0232 64.6181 66.0203C64.378 66.0203 64.1372 66.0202 63.8958 66.0202C63.616 66.0202 63.3371 66.0203 63.0593 66.0204C50.5395 66.0243 40.1277 66.0275 36.3637 58.0854Z" fill="#0084CE"/>
<path d="M39.3844 26.2298L40.5946 22.7509L37.2944 21.3799C35.4794 17.1312 37.4181 12.2224 41.6669 10.4074L49.1331 7.18992C53.3819 5.37492 58.2494 7.31367 60.0644 11.5624L58.4028 15.0517L62.1641 16.4617L63.1996 16.0176C64.6846 15.3576 66.4171 16.0589 67.0771 17.5851C67.6958 19.0289 66.9946 20.7614 65.5096 21.4214L40.5946 32.1051C39.1096 32.7651 37.3771 32.0639 36.7171 30.5789C36.0983 29.0939 36.7583 27.3201 38.2846 26.7014L39.3844 26.2298Z" fill="#321B41"/>
<path d="M62.1788 16.455L39.3695 26.2358L37.2939 21.3798L60.1052 11.6035L62.1788 16.455Z" fill="#0074BA"/>
<path d="M81.2206 45.9317L64.4731 44.1992C62.6168 44.1992 61.1318 45.6842 61.1318 47.5405C61.1318 49.3967 62.6168 50.8817 64.4731 50.8817L81.2206 49.1492C82.1281 49.1492 82.8706 48.4067 82.8706 47.4992C82.8706 46.5917 82.1281 45.9317 81.2206 45.9317Z" fill="#FF6723"/>
<path d="M59.8125 33C58.6734 33 57.75 33.9234 57.75 35.0625V39.1875C57.75 40.3266 58.6734 41.25 59.8125 41.25C60.9516 41.25 61.875 40.3266 61.875 39.1875V35.0625C61.875 33.9234 60.9516 33 59.8125 33ZM72.1875 33C71.0484 33 70.125 33.9234 70.125 35.0625V39.1875C70.125 40.3266 71.0484 41.25 72.1875 41.25C73.3266 41.25 74.25 40.3266 74.25 39.1875V35.0625C74.25 33.9234 73.3266 33 72.1875 33Z" fill="#433B6B"/>
<path d="M21.78 40.0315H22.605C23.8012 40.0315 24.7913 41.0215 24.7913 42.2178C24.7913 43.414 23.8012 44.404 22.605 44.404H21.78L22.3988 44.9403C23.2238 45.8065 23.2238 47.1678 22.3988 48.034C21.5325 48.9003 20.13 48.9003 19.305 48.034L18.7275 47.4565V48.2815C18.7275 49.4778 17.7375 50.4678 16.5413 50.4678C15.345 50.4678 14.355 49.4778 14.355 48.2815V47.4565L13.7775 48.0753C12.9113 48.9415 11.5087 48.9415 10.6837 48.0753C9.8175 47.209 9.8175 45.8478 10.6837 44.9815L11.2613 44.404H10.4362C9.24 44.404 8.25 43.414 8.25 42.2178C8.25 41.0215 9.24 40.0315 10.4362 40.0315H11.2613L10.6425 39.454C9.77625 38.5878 9.77625 37.2265 10.6425 36.3603C11.5087 35.494 12.9113 35.494 13.7363 36.3603L14.3138 36.979V36.154C14.3138 34.9578 15.3038 33.9678 16.5 33.9678C17.6962 33.9678 18.6862 34.9578 18.6862 36.154V36.979L19.2638 36.3603C20.13 35.494 21.4913 35.494 22.3575 36.3603C23.1825 37.2265 23.1825 38.5878 22.3575 39.454L21.78 40.0315ZM114.345 40.9804H113.891L114.221 40.6504C114.675 40.1967 114.675 39.4542 114.221 39.0004C113.767 38.5467 113.025 38.5467 112.571 39.0004L112.241 39.3304V38.8767C112.241 38.2579 111.705 37.7217 111.086 37.7217C110.467 37.7217 109.931 38.2579 109.931 38.8767V39.3304L109.601 39.0004C109.147 38.5467 108.405 38.5467 107.951 39.0004C107.497 39.4542 107.497 40.1967 107.951 40.6504L108.281 40.9804H107.827C107.209 40.9804 106.672 41.5167 106.672 42.1354C106.672 42.7542 107.209 43.2904 107.827 43.2904H108.281L107.951 43.6204C107.497 44.0742 107.497 44.8167 107.951 45.2704C108.405 45.7242 109.147 45.7242 109.601 45.2704L109.931 44.9404V45.3942C109.931 46.0129 110.467 46.5492 111.086 46.5492C111.705 46.5492 112.241 46.0129 112.241 45.3942V44.9404L112.571 45.2704C113.025 45.7242 113.767 45.7242 114.221 45.2704C114.675 44.8167 114.675 44.0742 114.221 43.6204L113.891 43.2904H114.345C114.964 43.2904 115.5 42.7542 115.5 42.1354C115.5 41.4754 115.005 40.9804 114.345 40.9804ZM118.305 94.6875H118.759C119.419 94.6875 119.914 95.2237 119.914 95.8425C119.914 96.4612 119.378 96.9975 118.759 96.9975H118.305L118.635 97.3275C119.089 97.7812 119.089 98.5237 118.635 98.9775C118.181 99.4312 117.439 99.4312 116.985 98.9775L116.655 98.6475V99.1012C116.655 99.72 116.119 100.256 115.5 100.256C114.881 100.256 114.345 99.72 114.345 99.1012V98.6475L114.015 98.9775C113.561 99.4312 112.819 99.4312 112.365 98.9775C111.911 98.5237 111.911 97.7812 112.365 97.3275L112.695 96.9975H112.241C111.623 96.9975 111.086 96.4612 111.086 95.8425C111.086 95.2237 111.623 94.6875 112.241 94.6875H112.695L112.365 94.3575C111.911 93.9037 111.911 93.1612 112.365 92.7075C112.819 92.2537 113.561 92.2537 114.015 92.7075L114.345 93.0375V92.5837C114.345 91.965 114.881 91.4287 115.5 91.4287C116.119 91.4287 116.655 91.965 116.655 92.5837V93.0375L116.985 92.7075C117.439 92.2537 118.181 92.2537 118.635 92.7075C119.089 93.1612 119.089 93.9037 118.635 94.3575L118.305 94.6875Z" fill="#00A6ED"/>
<path d="M108.404 19.4068H109.229C110.425 19.4068 111.415 20.3968 111.457 21.5518C111.457 22.748 110.467 23.738 109.27 23.738H108.445L109.023 24.3155C109.848 25.1818 109.848 26.543 109.023 27.4093C108.157 28.2755 106.754 28.2755 105.929 27.4093L105.352 26.8318V27.698C105.352 28.8943 104.362 29.8843 103.165 29.8843C101.969 29.8843 100.979 28.8943 100.979 27.698V26.873L100.402 27.4505C99.5354 28.3168 98.1329 28.3168 97.3079 27.4505C96.4416 26.5843 96.4416 25.223 97.3079 24.3568L97.8854 23.7793H97.0604C95.8641 23.7793 94.8741 22.7893 94.8741 21.593C94.8741 20.3968 95.8641 19.4068 97.0191 19.4068H97.8441L97.2666 18.8293C96.4004 17.963 96.4004 16.6018 97.2666 15.7355C98.1329 14.8693 99.5354 14.8693 100.36 15.7355L100.938 16.313V15.488C100.938 14.2918 101.928 13.3018 103.124 13.3018C104.32 13.3018 105.31 14.2918 105.31 15.488V16.313L105.888 15.7355C106.754 14.8693 108.115 14.8693 108.982 15.7355C109.807 16.6018 109.807 17.963 108.982 18.8293L108.404 19.4068ZM27.5951 20.4378H28.0076C28.6676 20.4378 29.2039 20.974 29.2039 21.5928C29.2039 22.2115 28.6676 22.7478 28.0489 22.7478H27.5951L27.9251 23.0778C28.3789 23.5315 28.3789 24.274 27.9251 24.7278C27.4714 25.1815 26.7289 25.1815 26.2751 24.7278L25.9451 24.3978V24.8515C25.9451 25.4703 25.4089 26.0065 24.7901 26.0065C24.1714 26.0065 23.6351 25.4703 23.6351 24.8515V24.3978L23.3051 24.7278C22.8514 25.1815 22.1089 25.1815 21.6551 24.7278C21.2014 24.274 21.2014 23.5315 21.6551 23.0778L21.9851 22.7478H21.5314C20.9126 22.7478 20.3764 22.2115 20.3764 21.5928C20.3764 20.974 20.9126 20.4378 21.5314 20.4378H21.9851L21.6551 20.1078C21.2014 19.654 21.2014 18.9115 21.6551 18.4578C22.1089 18.004 22.8514 18.004 23.3051 18.4578L23.6351 18.7878V18.334C23.6351 17.7153 24.1714 17.179 24.7901 17.179C25.4089 17.179 25.9451 17.7153 25.9451 18.334V18.7878L26.2751 18.4578C26.7289 18.004 27.4714 18.004 27.9251 18.4578C28.3789 18.9115 28.3789 19.654 27.9251 20.1078L27.5951 20.4378ZM19.2218 82.2307H18.7681L19.0981 81.9007C19.5518 81.4469 19.5518 80.7044 19.0981 80.2507C18.6443 79.7969 17.9018 79.7969 17.4481 80.2507L17.1181 80.5807V80.1269C17.1181 79.5082 16.5818 78.9719 15.9631 78.9719C15.3443 78.9719 14.8081 79.5082 14.8081 80.1269V80.5807L14.4781 80.2507C14.0243 79.7969 13.2818 79.7969 12.8281 80.2507C12.3743 80.7044 12.3743 81.4469 12.8281 81.9007L13.1581 82.2307H12.7043C12.0856 82.2307 11.5493 82.7669 11.5493 83.3857C11.5493 84.0044 12.0856 84.5407 12.7043 84.5407H13.1581L12.8281 84.8707C12.3743 85.3244 12.3743 86.0669 12.8281 86.5207C13.2818 86.9744 14.0243 86.9744 14.4781 86.5207L14.8081 86.1907V86.6444C14.8081 87.2632 15.3443 87.7994 15.9631 87.7994C16.5818 87.7994 17.1181 87.2632 17.1181 86.6444V86.1907L17.4481 86.5207C17.9018 86.9744 18.6443 86.9744 19.0981 86.5207C19.5518 86.0669 19.5518 85.3244 19.0981 84.8707L18.7681 84.5819H19.2218C19.8406 84.5819 20.3768 84.0457 20.3768 83.4269C20.3768 82.7669 19.8406 82.2307 19.2218 82.2307Z" fill="#26C9FC"/>
</svg>
